<mxfile host="app.diagrams.net" modified="2024-07-14T07:25:27.156Z" agent="Mozilla/5.0 (Windows NT 10.0; Win64; x64) AppleWebKit/537.36 (KHTML, like Gecko) Chrome/126.0.0.0 Safari/537.36" version="24.6.4" etag="IiA6AaTT8J6DIFalqKSa" type="github">
  <diagram name="หน้า-1" id="vK5NB5cDB4hFfiom-BKM">
    <mxGraphModel>
      <root>
        <mxCell id="0" />
        <mxCell id="1" parent="0" />
      </root>
    </mxGraphModel>
  </diagram>
</mxfile>
